<svg width="13" height="16" viewBox="0 0 13 16" fill="none" xmlns="http://www.w3.org/2000/svg">
<path fill-rule="evenodd" clip-rule="evenodd" d="M11.0748 0H2.03143C1.26309 0 0.640137 0.622956 0.640137 1.3913V14.6087C0.640137 15.377 1.26309 16 2.03143 16H8.63069C8.63139 16 8.63243 16 8.63312 16H8.64008C8.75138 16 8.84634 15.944 8.90999 15.8626L12.3288 12.4438C12.4105 12.3802 12.4661 12.2852 12.4661 12.1739V12.1666C12.4661 12.1659 12.4661 12.1656 12.4661 12.1649V1.3913C12.4661 0.622956 11.8432 0 11.0748 0ZM8.98791 14.824V12.5217H11.2901L8.98791 14.824ZM11.7705 11.8261H8.64008C8.44773 11.8261 8.29226 11.9819 8.29226 12.1739V15.3043H2.03143C1.64743 15.3043 1.33578 14.9927 1.33578 14.6087V1.3913C1.33578 1.0073 1.64743 0.695652 2.03143 0.695652H11.0748C11.4588 0.695652 11.7705 1.0073 11.7705 1.3913V11.8261ZM9.68355 2.78261H3.42273C3.23038 2.78261 3.0749 2.93809 3.0749 3.13043C3.0749 3.32243 3.23038 3.47826 3.42273 3.47826H9.68355C9.8759 3.47826 10.0314 3.32243 10.0314 3.13043C10.0314 2.93809 9.8759 2.78261 9.68355 2.78261ZM9.68355 5.56522H3.42273C3.23038 5.56522 3.0749 5.7207 3.0749 5.91304C3.0749 6.10504 3.23038 6.26087 3.42273 6.26087H9.68355C9.8759 6.26087 10.0314 6.10504 10.0314 5.91304C10.0314 5.7207 9.8759 5.56522 9.68355 5.56522ZM9.68355 8.34783H3.42273C3.23038 8.34783 3.0749 8.5033 3.0749 8.69565C3.0749 8.88765 3.23038 9.04348 3.42273 9.04348H9.68355C9.8759 9.04348 10.0314 8.88765 10.0314 8.69565C10.0314 8.5033 9.8759 8.34783 9.68355 8.34783Z" fill="black"/>
</svg>
