<svg width="211" height="71" viewBox="0 0 211 71" fill="none" xmlns="http://www.w3.org/2000/svg">
<rect x="45" y="8" width="53" height="55" rx="26.5" fill="#C4B0A3"/>
<path d="M65.192 46H62.92V24.56H73.416C77.896 24.56 80.936 26.832 80.936 30.768C80.936 34.384 78.28 36.624 74.312 36.72V36.88C75.72 37.264 76.52 38.192 77.256 39.44L81.288 46H78.664L74.856 39.792C73.768 38 72.648 37.232 69.8 37.232H65.192V46ZM65.192 26.64V35.408H73.384C76.776 35.408 78.568 34.064 78.568 31.024C78.568 27.984 76.776 26.64 73.384 26.64H65.192Z" fill="black"/>
<rect y="8" width="55" height="55" rx="27.5" fill="#A08F85"/>
<path d="M20.192 46H17.92V24.56H20.192V34.16H33.984V24.56H36.256V46H33.984V36.24H20.192V46Z" fill="white"/>
<path d="M111.54 42.2C108.5 42.2 106.74 40.98 106.74 38.7V38.66H108.16V38.78C108.16 40.44 109.14 41.02 111.56 41.02C113.78 41.02 114.54 40.5 114.54 39.36C114.54 38.32 113.92 37.98 112.28 37.72L109.64 37.34C107.84 37.1 106.7 36.4 106.7 34.76C106.7 33.02 108.36 31.92 111.08 31.92C113.92 31.92 115.76 33.12 115.76 35.44V35.48H114.34V35.38C114.34 33.9 113.56 33.1 111.04 33.1C108.96 33.1 108.1 33.6 108.1 34.78C108.1 35.8 108.62 36.16 110.26 36.4L112.68 36.74C114.8 37.04 115.94 37.76 115.94 39.36C115.94 41.22 114.1 42.2 111.54 42.2ZM122.777 45.4H121.537V44.1H123.037C124.037 44.1 124.417 43.8 124.797 42.98L125.277 41.98L120.377 32.12H121.937L124.837 38L125.937 40.42H126.057L127.117 37.98L129.857 32.12H131.417L126.057 43.38C125.337 44.9 124.417 45.4 122.777 45.4ZM140.798 42.2C137.758 42.2 135.998 40.98 135.998 38.7V38.66H137.418V38.78C137.418 40.44 138.398 41.02 140.818 41.02C143.038 41.02 143.798 40.5 143.798 39.36C143.798 38.32 143.178 37.98 141.538 37.72L138.898 37.34C137.098 37.1 135.958 36.4 135.958 34.76C135.958 33.02 137.618 31.92 140.338 31.92C143.178 31.92 145.018 33.12 145.018 35.44V35.48H143.598V35.38C143.598 33.9 142.818 33.1 140.298 33.1C138.218 33.1 137.358 33.6 137.358 34.78C137.358 35.8 137.878 36.16 139.518 36.4L141.938 36.74C144.058 37.04 145.198 37.76 145.198 39.36C145.198 41.22 143.358 42.2 140.798 42.2ZM156.795 42H154.655C152.695 42 151.435 41.18 151.435 38.86V33.34H149.675V32.12H151.435V29.76H152.875V32.12H156.795V33.34H152.875V38.94C152.875 40.32 153.555 40.7 154.995 40.7H156.795V42ZM166.724 42.2C163.544 42.2 161.524 40.2 161.524 37.06C161.524 34.06 163.524 31.92 166.704 31.92C169.604 31.92 171.664 33.6 171.664 36.54C171.664 36.9 171.624 37.2 171.564 37.46H162.864C162.944 39.68 164.084 41.02 166.704 41.02C169.024 41.02 170.104 40.16 170.104 38.72V38.58H171.524V38.72C171.524 40.78 169.484 42.2 166.724 42.2ZM166.684 33.1C164.124 33.1 162.964 34.42 162.864 36.58H170.324C170.324 36.48 170.324 36.38 170.324 36.28C170.324 34.2 169.004 33.1 166.684 33.1ZM178.64 42H177.22V32.12H178.5V35.1H178.58C178.86 33.44 180 31.92 182.46 31.92C184.66 31.92 185.9 33.28 186.22 35.2H186.32C186.6 33.5 187.78 31.92 190.26 31.92C192.84 31.92 194.18 33.74 194.18 36.24V42H192.76V36.44C192.76 34.24 191.82 33.22 189.74 33.22C187.36 33.22 186.4 34.6 186.4 37.22V42H184.98V36.44C184.98 34.24 184.06 33.22 181.98 33.22C179.58 33.22 178.64 34.6 178.64 37.22V42ZM202.909 42.2C200.969 42.2 199.649 41.28 199.649 39.68C199.649 38.06 200.989 37.36 202.829 37.16L207.529 36.64V35.88C207.529 33.96 206.689 33.2 204.529 33.2C202.409 33.2 201.289 33.96 201.289 35.7V35.78H199.869V35.7C199.869 33.62 201.589 31.92 204.629 31.92C207.629 31.92 208.909 33.64 208.909 35.82V42H207.629V39.34H207.529C206.949 41.16 205.209 42.2 202.909 42.2ZM201.069 39.58C201.069 40.58 201.729 41.1 203.229 41.1C205.629 41.1 207.529 40.04 207.529 37.66V37.58L203.269 38.06C201.789 38.2 201.069 38.56 201.069 39.58Z" fill="#A08F85"/>
</svg>
