<svg width="15" height="14" viewBox="0 0 15 14" fill="none" xmlns="http://www.w3.org/2000/svg">
<path d="M7.11315 12.4998L7.82015 13.2067L13.8201 7.20675C15.3931 5.63375 15.3931 3.07275 13.8201 1.49975C12.2461 -0.0742499 9.68715 -0.0742499 8.11315 1.49975L1.61315 7.99975C0.315148 9.29775 0.315148 11.4087 1.61315 12.7067C2.26115 13.3547 3.11415 13.6807 3.96715 13.6807C4.82015 13.6807 5.67215 13.3558 6.32115 12.7067L12.3211 6.70675C12.8161 6.21175 13.0881 5.55375 13.0881 4.85375C13.0881 4.15375 12.8161 3.49575 12.3201 2.99975C11.3301 2.00975 9.60315 2.00975 8.61315 2.99975L3.11315 8.49975L3.82015 9.20675L9.32015 3.70675C9.93115 3.09575 11.0021 3.09575 11.6131 3.70675C11.9191 4.01275 12.0881 4.41975 12.0881 4.85375C12.0881 5.28775 11.9191 5.69475 11.6131 5.99975L5.61315 11.9998C4.70515 12.9078 3.22815 12.9078 2.32015 11.9998C1.41215 11.0918 1.41215 9.61475 2.32015 8.70675L8.82015 2.20675C10.0041 1.02275 11.9291 1.02275 13.1131 2.20675C14.2971 3.39075 14.2971 5.31575 13.1131 6.49975L7.11315 12.4998Z" fill="black"/>
</svg>
